Taken.2.2012.CAM.x264.AAC-UNiQUE

General
Complete name                            : Taken 2 2012 CAM x264 AAC-UNiQUE.mp4
Format                                   : MPEG-4
Format profile                           : Base Media
Codec ID                                 : isom
File size                                : 707 MiB
Duration                                 : 1h 23mn
Overall bit rate mode                    : Variable
Overall bit rate                         : 1 186 Kbps
Encoded date                             : UTC 2012-10-07 17:06:19

Video
ID                                       : 1
Format                                   : AVC
Format/Info                              : Advanced Video Codec
Format profile                           : High@L4.1
Format settings, CABAC                   : Yes
Format settings, ReFrames                : 3 frames
Codec ID                                 : avc1
Codec ID/Info                            : Advanced Video Coding
Duration                                 : 1h 23mn
Bit rate mode                            : Variable
Bit rate                                 : 1 105 Kbps
Maximum bit rate                         : 40.0 Mbps
Width                                    : 640 pixels
Height                                   : 272 pixels
Display aspect ratio                     : 2.35:1
Frame rate mode                          : Constant
Frame rate                               : 29.970 fps
Color space                              : YUV
Chroma subsampling                       : 4:2:0
Bit depth                                : 8 bits
Scan type                                : Progressive
Bits/(Pixel*Frame)                       : 0.212
Stream size                              : 658 MiB (93%)
Writing library                          : x264 core 128 r2216 198a7ea

Audio
ID                                       : 2
Format                                   : AAC
Format/Info                              : Advanced Audio Codec
Format profile                           : LC
Codec ID                                 : 40
Duration                                 : 1h 23mn
Bit rate mode                            : Variable
Bit rate                                 : 77.5 Kbps
Maximum bit rate                         : 88.5 Kbps
Channel(s)                               : 2 channels
Channel positions                        : Front: L R
Sampling rate                            : 44.1 KHz
Compression mode                         : Lossy
Stream size                              : 46.2 MiB (7%)
Language                                 : English
Encoded date                             : UTC 2012-10-07 17:06:53

Source: NOYPi - Thanks!               

Storyline
In Istanbul, retired CIA operative Bryan Mills and his wife are taken hostage by the father of a kidnapper Mills killed while rescuing his daughter.

iMDB: http://www.imdb.com/title/tt1397280/

Notes:
Source had a bad crop, badly zoomed in, noticable blur, and so on, so i adjusted the res, denoised, messed with gamma, chroma, levels then added a slight sharpen. its not the best at all but will do until something better comes along, cam audio is pretty weak also. 

Enjoy another KICKASS UNiQUE RELEASE !!!!!!


Poster:

 
http://www.shotpix.com/images/84451842095327404717.jpg


Screenshots:

 
http://www.shotpix.com/images/19476302267640523472.jpg

 
http://www.shotpix.com/images/27383714948599545282.jpg


ENJOY!